<svg xmlns="http://www.w3.org/2000/svg" width="51" height="42" viewBox="0 0 51 42" shape-rendering="crispEdges"><g transform="scale(1.6)"><rect x="10" y="3" width="4" height="1" fill="#140c1c"/><rect x="9" y="4" width="1" height="1" fill="#140c1c"/><rect x="13" y="4" width="1" height="1" fill="#140c1c"/><rect x="9" y="5" width="1" height="1" fill="#140c1c"/><rect x="14" y="5" width="3" height="1" fill="#140c1c"/><rect x="9" y="6" width="1" height="1" fill="#140c1c"/><rect x="16" y="6" width="1" height="1" fill="#140c1c"/><rect x="9" y="7" width="1" height="1" fill="#140c1c"/><rect x="16" y="7" width="1" height="1" fill="#140c1c"/><rect x="9" y="8" width="1" height="1" fill="#140c1c"/><rect x="16" y="8" width="1" height="1" fill="#140c1c"/><rect x="9" y="9" width="1" height="1" fill="#140c1c"/><rect x="16" y="9" width="1" height="1" fill="#140c1c"/><rect x="10" y="10" width="1" height="1" fill="#140c1c"/><rect x="15" y="10" width="1" height="1" fill="#140c1c"/><rect x="10" y="11" width="1" height="1" fill="#140c1c"/><rect x="15" y="11" width="1" height="1" fill="#140c1c"/><rect x="10" y="12" width="1" height="1" fill="#140c1c"/><rect x="15" y="12" width="1" height="1" fill="#140c1c"/><rect x="21" y="12" width="1" height="1" fill="#140c1c"/><rect x="4" y="13" width="6" height="1" fill="#140c1c"/><rect x="16" y="13" width="1" height="1" fill="#140c1c"/><rect x="21" y="13" width="10" height="1" fill="#140c1c"/><rect x="4" y="14" width="1" height="1" fill="#140c1c"/><rect x="17" y="14" width="4" height="1" fill="#140c1c"/><rect x="22" y="14" width="9" height="1" fill="#140c1c"/><rect x="4" y="15" width="1" height="1" fill="#140c1c"/><rect x="17" y="15" width="3" height="1" fill="#140c1c"/><rect x="21" y="15" width="1" height="1" fill="#140c1c"/><rect x="4" y="16" width="1" height="1" fill="#140c1c"/><rect x="16" y="16" width="1" height="1" fill="#140c1c"/><rect x="4" y="17" width="1" height="1" fill="#140c1c"/><rect x="16" y="17" width="1" height="1" fill="#140c1c"/><rect x="4" y="18" width="1" height="1" fill="#140c1c"/><rect x="16" y="18" width="1" height="1" fill="#140c1c"/><rect x="4" y="19" width="2" height="1" fill="#140c1c"/><rect x="9" y="19" width="1" height="1" fill="#140c1c"/><rect x="12" y="19" width="1" height="1" fill="#140c1c"/><rect x="15" y="19" width="2" height="1" fill="#140c1c"/><rect x="6" y="20" width="1" height="1" fill="#140c1c"/><rect x="8" y="20" width="1" height="1" fill="#140c1c"/><rect x="10" y="20" width="2" height="1" fill="#140c1c"/><rect x="13" y="20" width="2" height="1" fill="#140c1c"/><rect x="6" y="21" width="3" height="1" fill="#140c1c"/><rect x="10" y="21" width="2" height="1" fill="#140c1c"/><rect x="13" y="21" width="2" height="1" fill="#140c1c"/><rect x="10" y="22" width="2" height="1" fill="#140c1c"/><rect x="13" y="22" width="2" height="1" fill="#140c1c"/><rect x="10" y="23" width="2" height="1" fill="#140c1c"/><rect x="13" y="23" width="2" height="1" fill="#140c1c"/><rect x="10" y="24" width="2" height="1" fill="#140c1c"/><rect x="13" y="24" width="2" height="1" fill="#140c1c"/><rect x="10" y="3" width="4" height="1" fill="#40ffb0"/><rect x="9" y="4" width="5" height="1" fill="#40ffb0"/><rect x="9" y="5" width="1" height="1" fill="#40ffb0"/><rect x="10" y="5" width="5" height="1" fill="#7f7f89"/><rect x="15" y="5" width="2" height="1" fill="#3a3a4a"/><rect x="9" y="6" width="1" height="1" fill="#40ffb0"/><rect x="10" y="6" width="7" height="1" fill="#3a3a4a"/><rect x="9" y="7" width="8" height="1" fill="#3a3a4a"/><rect x="9" y="8" width="4" height="1" fill="#3a3a4a"/><rect x="13" y="8" width="4" height="1" fill="#1a1020"/><rect x="9" y="9" width="8" height="1" fill="#3a3a4a"/><rect x="10" y="10" width="4" height="1" fill="#9098a8"/><rect x="14" y="10" width="1" height="1" fill="#1a1020"/><rect x="15" y="10" width="1" height="1" fill="#9098a8"/><rect x="10" y="11" width="6" height="1" fill="#737a86"/><rect x="10" y="12" width="6" height="1" fill="#737a86"/><rect x="21" y="12" width="1" height="1" fill="#e8c050"/><rect x="4" y="13" width="6" height="1" fill="#1d1d29"/><rect x="10" y="13" width="2" height="1" fill="#2a2a3a"/><rect x="12" y="13" width="1" height="1" fill="#40ffb0"/><rect x="13" y="13" width="3" height="1" fill="#6a6a75"/><rect x="16" y="13" width="1" height="1" fill="#2a2a3a"/><rect x="21" y="13" width="1" height="1" fill="#e8c050"/><rect x="22" y="13" width="9" height="1" fill="#a0ffd9"/><rect x="4" y="14" width="1" height="1" fill="#1d1d29"/><rect x="5" y="14" width="2" height="1" fill="#2a2a3a"/><rect x="7" y="14" width="3" height="1" fill="#1d1d29"/><rect x="10" y="14" width="2" height="1" fill="#2a2a3a"/><rect x="12" y="14" width="1" height="1" fill="#40ffb0"/><rect x="13" y="14" width="3" height="1" fill="#6a6a75"/><rect x="16" y="14" width="4" height="1" fill="#2a2a3a"/><rect x="20" y="14" width="1" height="1" fill="#9098a8"/><rect x="21" y="14" width="1" height="1" fill="#e8c050"/><rect x="22" y="14" width="9" height="1" fill="#60ffc0"/><rect x="4" y="15" width="1" height="1" fill="#1d1d29"/><rect x="5" y="15" width="2" height="1" fill="#2a2a3a"/><rect x="7" y="15" width="3" height="1" fill="#1d1d29"/><rect x="10" y="15" width="2" height="1" fill="#2a2a3a"/><rect x="12" y="15" width="1" height="1" fill="#40ffb0"/><rect x="13" y="15" width="7" height="1" fill="#2a2a3a"/><rect x="21" y="15" width="1" height="1" fill="#e8c050"/><rect x="4" y="16" width="1" height="1" fill="#1d1d29"/><rect x="5" y="16" width="2" height="1" fill="#40ffb0"/><rect x="7" y="16" width="3" height="1" fill="#1d1d29"/><rect x="10" y="16" width="2" height="1" fill="#2a2a3a"/><rect x="12" y="16" width="1" height="1" fill="#40ffb0"/><rect x="13" y="16" width="4" height="1" fill="#2a2a3a"/><rect x="4" y="17" width="1" height="1" fill="#1d1d29"/><rect x="5" y="17" width="2" height="1" fill="#2a2a3a"/><rect x="7" y="17" width="3" height="1" fill="#1d1d29"/><rect x="10" y="17" width="2" height="1" fill="#2a2a3a"/><rect x="12" y="17" width="1" height="1" fill="#40ffb0"/><rect x="13" y="17" width="4" height="1" fill="#2a2a3a"/><rect x="4" y="18" width="1" height="1" fill="#1d1d29"/><rect x="5" y="18" width="2" height="1" fill="#2a2a3a"/><rect x="7" y="18" width="1" height="1" fill="#1d1d29"/><rect x="8" y="18" width="9" height="1" fill="#40ffb0"/><rect x="4" y="19" width="6" height="1" fill="#1d1d29"/><rect x="10" y="19" width="7" height="1" fill="#2a2a3a"/><rect x="6" y="20" width="3" height="1" fill="#142c24"/><rect x="10" y="20" width="2" height="1" fill="#141420"/><rect x="13" y="20" width="2" height="1" fill="#1a1a2a"/><rect x="6" y="21" width="3" height="1" fill="#142c24"/><rect x="10" y="21" width="2" height="1" fill="#141420"/><rect x="13" y="21" width="2" height="1" fill="#1a1a2a"/><rect x="10" y="22" width="2" height="1" fill="#141420"/><rect x="13" y="22" width="2" height="1" fill="#1a1a2a"/><rect x="10" y="23" width="2" height="1" fill="#0c0c12"/><rect x="13" y="23" width="2" height="1" fill="#101018"/><rect x="10" y="24" width="2" height="1" fill="#0c0c12"/><rect x="13" y="24" width="2" height="1" fill="#101018"/></g></svg>
