<svg xmlns="http://www.w3.org/2000/svg" width="48" height="29" viewBox="0 0 48 29" shape-rendering="crispEdges"><g transform="scale(1.6)"><rect x="24" y="3" width="2" height="1" fill="#140c1c"/><rect x="27" y="3" width="2" height="1" fill="#140c1c"/><rect x="24" y="4" width="2" height="1" fill="#140c1c"/><rect x="27" y="4" width="2" height="1" fill="#140c1c"/><rect x="23" y="5" width="1" height="1" fill="#140c1c"/><rect x="26" y="5" width="1" height="1" fill="#140c1c"/><rect x="28" y="5" width="1" height="1" fill="#140c1c"/><rect x="0" y="6" width="2" height="1" fill="#140c1c"/><rect x="18" y="6" width="5" height="1" fill="#140c1c"/><rect x="28" y="6" width="1" height="1" fill="#140c1c"/><rect x="0" y="7" width="1" height="1" fill="#140c1c"/><rect x="2" y="7" width="16" height="1" fill="#140c1c"/><rect x="28" y="7" width="1" height="1" fill="#140c1c"/><rect x="1" y="8" width="4" height="1" fill="#140c1c"/><rect x="29" y="8" width="1" height="1" fill="#140c1c"/><rect x="5" y="9" width="1" height="1" fill="#140c1c"/><rect x="29" y="9" width="1" height="1" fill="#140c1c"/><rect x="5" y="10" width="1" height="1" fill="#140c1c"/><rect x="25" y="10" width="5" height="1" fill="#140c1c"/><rect x="5" y="11" width="1" height="1" fill="#140c1c"/><rect x="24" y="11" width="1" height="1" fill="#140c1c"/><rect x="29" y="11" width="1" height="1" fill="#140c1c"/><rect x="5" y="12" width="1" height="1" fill="#140c1c"/><rect x="24" y="12" width="1" height="1" fill="#140c1c"/><rect x="5" y="13" width="2" height="1" fill="#140c1c"/><rect x="11" y="13" width="9" height="1" fill="#140c1c"/><rect x="24" y="13" width="1" height="1" fill="#140c1c"/><rect x="7" y="14" width="1" height="1" fill="#140c1c"/><rect x="10" y="14" width="1" height="1" fill="#140c1c"/><rect x="20" y="14" width="1" height="1" fill="#140c1c"/><rect x="23" y="14" width="1" height="1" fill="#140c1c"/><rect x="7" y="15" width="1" height="1" fill="#140c1c"/><rect x="10" y="15" width="1" height="1" fill="#140c1c"/><rect x="20" y="15" width="1" height="1" fill="#140c1c"/><rect x="23" y="15" width="1" height="1" fill="#140c1c"/><rect x="7" y="16" width="4" height="1" fill="#140c1c"/><rect x="20" y="16" width="4" height="1" fill="#140c1c"/><rect x="24" y="3" width="2" height="1" fill="#262630"/><rect x="27" y="3" width="2" height="1" fill="#262630"/><rect x="24" y="4" width="2" height="1" fill="#262630"/><rect x="27" y="4" width="2" height="1" fill="#262630"/><rect x="23" y="5" width="1" height="1" fill="#3a3a4a"/><rect x="24" y="5" width="4" height="1" fill="#757580"/><rect x="28" y="5" width="1" height="1" fill="#3a3a4a"/><rect x="0" y="6" width="2" height="1" fill="#262630"/><rect x="18" y="6" width="5" height="1" fill="#d0d0e0"/><rect x="23" y="6" width="6" height="1" fill="#3a3a4a"/><rect x="0" y="7" width="5" height="1" fill="#262630"/><rect x="5" y="7" width="2" height="1" fill="#3a3a4a"/><rect x="7" y="7" width="11" height="1" fill="#757580"/><rect x="18" y="7" width="5" height="1" fill="#d0d0e0"/><rect x="23" y="7" width="4" height="1" fill="#3a3a4a"/><rect x="27" y="7" width="1" height="1" fill="#ff3030"/><rect x="28" y="7" width="1" height="1" fill="#3a3a4a"/><rect x="1" y="8" width="4" height="1" fill="#262630"/><rect x="5" y="8" width="13" height="1" fill="#3a3a4a"/><rect x="18" y="8" width="5" height="1" fill="#d0d0e0"/><rect x="23" y="8" width="7" height="1" fill="#3a3a4a"/><rect x="5" y="9" width="13" height="1" fill="#3a3a4a"/><rect x="18" y="9" width="5" height="1" fill="#d0d0e0"/><rect x="23" y="9" width="7" height="1" fill="#3a3a4a"/><rect x="5" y="10" width="13" height="1" fill="#3a3a4a"/><rect x="18" y="10" width="5" height="1" fill="#d0d0e0"/><rect x="23" y="10" width="7" height="1" fill="#3a3a4a"/><rect x="5" y="11" width="13" height="1" fill="#3a3a4a"/><rect x="18" y="11" width="6" height="1" fill="#d0d0e0"/><rect x="24" y="11" width="1" height="1" fill="#3a3a4a"/><rect x="29" y="11" width="1" height="1" fill="#f0f0f0"/><rect x="5" y="12" width="20" height="1" fill="#262630"/><rect x="5" y="13" width="20" height="1" fill="#262630"/><rect x="7" y="14" width="2" height="1" fill="#262630"/><rect x="9" y="14" width="2" height="1" fill="#3a3a4a"/><rect x="20" y="14" width="2" height="1" fill="#262630"/><rect x="22" y="14" width="2" height="1" fill="#3a3a4a"/><rect x="7" y="15" width="2" height="1" fill="#262630"/><rect x="9" y="15" width="2" height="1" fill="#3a3a4a"/><rect x="20" y="15" width="2" height="1" fill="#262630"/><rect x="22" y="15" width="2" height="1" fill="#3a3a4a"/><rect x="7" y="16" width="2" height="1" fill="#262630"/><rect x="9" y="16" width="2" height="1" fill="#3a3a4a"/><rect x="20" y="16" width="2" height="1" fill="#262630"/><rect x="22" y="16" width="2" height="1" fill="#3a3a4a"/></g></svg>
