<svg xmlns="http://www.w3.org/2000/svg" width="48" height="29" viewBox="0 0 48 29" shape-rendering="crispEdges"><g transform="scale(1.6)"><rect x="21" y="3" width="2" height="1" fill="#140c1c"/><rect x="24" y="3" width="2" height="1" fill="#140c1c"/><rect x="21" y="4" width="2" height="1" fill="#140c1c"/><rect x="24" y="4" width="2" height="1" fill="#140c1c"/><rect x="20" y="5" width="1" height="1" fill="#140c1c"/><rect x="23" y="5" width="1" height="1" fill="#140c1c"/><rect x="25" y="5" width="1" height="1" fill="#140c1c"/><rect x="0" y="6" width="2" height="1" fill="#140c1c"/><rect x="15" y="6" width="5" height="1" fill="#140c1c"/><rect x="25" y="6" width="1" height="1" fill="#140c1c"/><rect x="0" y="7" width="1" height="1" fill="#140c1c"/><rect x="2" y="7" width="13" height="1" fill="#140c1c"/><rect x="25" y="7" width="1" height="1" fill="#140c1c"/><rect x="1" y="8" width="4" height="1" fill="#140c1c"/><rect x="26" y="8" width="3" height="1" fill="#140c1c"/><rect x="5" y="9" width="1" height="1" fill="#140c1c"/><rect x="28" y="9" width="1" height="1" fill="#140c1c"/><rect x="5" y="10" width="1" height="1" fill="#140c1c"/><rect x="22" y="10" width="7" height="1" fill="#140c1c"/><rect x="5" y="11" width="1" height="1" fill="#140c1c"/><rect x="21" y="11" width="1" height="1" fill="#140c1c"/><rect x="5" y="12" width="1" height="1" fill="#140c1c"/><rect x="21" y="12" width="1" height="1" fill="#140c1c"/><rect x="5" y="13" width="3" height="1" fill="#140c1c"/><rect x="10" y="13" width="8" height="1" fill="#140c1c"/><rect x="20" y="13" width="2" height="1" fill="#140c1c"/><rect x="8" y="14" width="2" height="1" fill="#140c1c"/><rect x="18" y="14" width="2" height="1" fill="#140c1c"/><rect x="8" y="15" width="2" height="1" fill="#140c1c"/><rect x="18" y="15" width="2" height="1" fill="#140c1c"/><rect x="8" y="16" width="2" height="1" fill="#140c1c"/><rect x="18" y="16" width="2" height="1" fill="#140c1c"/><rect x="21" y="3" width="2" height="1" fill="#262630"/><rect x="24" y="3" width="2" height="1" fill="#262630"/><rect x="21" y="4" width="2" height="1" fill="#262630"/><rect x="24" y="4" width="2" height="1" fill="#262630"/><rect x="20" y="5" width="1" height="1" fill="#3a3a4a"/><rect x="21" y="5" width="4" height="1" fill="#757580"/><rect x="25" y="5" width="1" height="1" fill="#3a3a4a"/><rect x="0" y="6" width="2" height="1" fill="#262630"/><rect x="15" y="6" width="5" height="1" fill="#d0d0e0"/><rect x="20" y="6" width="6" height="1" fill="#3a3a4a"/><rect x="0" y="7" width="5" height="1" fill="#262630"/><rect x="5" y="7" width="2" height="1" fill="#3a3a4a"/><rect x="7" y="7" width="8" height="1" fill="#757580"/><rect x="15" y="7" width="5" height="1" fill="#d0d0e0"/><rect x="20" y="7" width="4" height="1" fill="#3a3a4a"/><rect x="24" y="7" width="1" height="1" fill="#ff3030"/><rect x="25" y="7" width="1" height="1" fill="#3a3a4a"/><rect x="1" y="8" width="4" height="1" fill="#262630"/><rect x="5" y="8" width="10" height="1" fill="#3a3a4a"/><rect x="15" y="8" width="5" height="1" fill="#d0d0e0"/><rect x="20" y="8" width="8" height="1" fill="#3a3a4a"/><rect x="28" y="8" width="1" height="1" fill="#1a1020"/><rect x="5" y="9" width="10" height="1" fill="#3a3a4a"/><rect x="15" y="9" width="5" height="1" fill="#d0d0e0"/><rect x="20" y="9" width="9" height="1" fill="#3a3a4a"/><rect x="5" y="10" width="10" height="1" fill="#3a3a4a"/><rect x="15" y="10" width="5" height="1" fill="#d0d0e0"/><rect x="20" y="10" width="9" height="1" fill="#3a3a4a"/><rect x="5" y="11" width="10" height="1" fill="#3a3a4a"/><rect x="15" y="11" width="6" height="1" fill="#d0d0e0"/><rect x="21" y="11" width="1" height="1" fill="#3a3a4a"/><rect x="5" y="12" width="17" height="1" fill="#262630"/><rect x="5" y="13" width="17" height="1" fill="#262630"/><rect x="8" y="14" width="2" height="1" fill="#3a3a4a"/><rect x="18" y="14" width="2" height="1" fill="#3a3a4a"/><rect x="8" y="15" width="2" height="1" fill="#3a3a4a"/><rect x="18" y="15" width="2" height="1" fill="#3a3a4a"/><rect x="8" y="16" width="2" height="1" fill="#3a3a4a"/><rect x="18" y="16" width="2" height="1" fill="#3a3a4a"/></g></svg>
