<svg xmlns="http://www.w3.org/2000/svg" width="30" height="18" viewBox="0 0 30 18" shape-rendering="crispEdges"><g transform="scale(1)"><rect x="24" y="4" width="2" height="1" fill="#140c1c"/><rect x="23" y="5" width="1" height="1" fill="#140c1c"/><rect x="26" y="5" width="3" height="1" fill="#140c1c"/><rect x="18" y="6" width="5" height="1" fill="#140c1c"/><rect x="28" y="6" width="1" height="1" fill="#140c1c"/><rect x="5" y="7" width="13" height="1" fill="#140c1c"/><rect x="29" y="7" width="1" height="1" fill="#140c1c"/><rect x="5" y="8" width="1" height="1" fill="#140c1c"/><rect x="29" y="8" width="1" height="1" fill="#140c1c"/><rect x="3" y="9" width="2" height="1" fill="#140c1c"/><rect x="29" y="9" width="1" height="1" fill="#140c1c"/><rect x="3" y="10" width="2" height="1" fill="#140c1c"/><rect x="25" y="10" width="5" height="1" fill="#140c1c"/><rect x="5" y="11" width="1" height="1" fill="#140c1c"/><rect x="24" y="11" width="1" height="1" fill="#140c1c"/><rect x="29" y="11" width="1" height="1" fill="#140c1c"/><rect x="5" y="12" width="1" height="1" fill="#140c1c"/><rect x="24" y="12" width="1" height="1" fill="#140c1c"/><rect x="5" y="13" width="2" height="1" fill="#140c1c"/><rect x="11" y="13" width="9" height="1" fill="#140c1c"/><rect x="24" y="13" width="1" height="1" fill="#140c1c"/><rect x="7" y="14" width="1" height="1" fill="#140c1c"/><rect x="10" y="14" width="1" height="1" fill="#140c1c"/><rect x="20" y="14" width="1" height="1" fill="#140c1c"/><rect x="23" y="14" width="1" height="1" fill="#140c1c"/><rect x="7" y="15" width="1" height="1" fill="#140c1c"/><rect x="10" y="15" width="1" height="1" fill="#140c1c"/><rect x="20" y="15" width="1" height="1" fill="#140c1c"/><rect x="23" y="15" width="1" height="1" fill="#140c1c"/><rect x="7" y="16" width="4" height="1" fill="#140c1c"/><rect x="20" y="16" width="4" height="1" fill="#140c1c"/><rect x="24" y="4" width="2" height="1" fill="#4f3021"/><rect x="23" y="5" width="1" height="1" fill="#7a4a32"/><rect x="24" y="5" width="2" height="1" fill="#4f3021"/><rect x="26" y="5" width="2" height="1" fill="#a28070"/><rect x="28" y="5" width="1" height="1" fill="#7a4a32"/><rect x="18" y="6" width="5" height="1" fill="#4a2a1a"/><rect x="23" y="6" width="6" height="1" fill="#7a4a32"/><rect x="5" y="7" width="2" height="1" fill="#7a4a32"/><rect x="7" y="7" width="11" height="1" fill="#a28070"/><rect x="18" y="7" width="5" height="1" fill="#4a2a1a"/><rect x="23" y="7" width="4" height="1" fill="#7a4a32"/><rect x="27" y="7" width="1" height="1" fill="#ff4422"/><rect x="28" y="7" width="2" height="1" fill="#8e6551"/><rect x="5" y="8" width="13" height="1" fill="#7a4a32"/><rect x="18" y="8" width="5" height="1" fill="#4a2a1a"/><rect x="23" y="8" width="5" height="1" fill="#7a4a32"/><rect x="28" y="8" width="2" height="1" fill="#8e6551"/><rect x="3" y="9" width="2" height="1" fill="#4f3021"/><rect x="5" y="9" width="13" height="1" fill="#7a4a32"/><rect x="18" y="9" width="5" height="1" fill="#4a2a1a"/><rect x="23" y="9" width="5" height="1" fill="#7a4a32"/><rect x="28" y="9" width="2" height="1" fill="#8e6551"/><rect x="3" y="10" width="2" height="1" fill="#4f3021"/><rect x="5" y="10" width="13" height="1" fill="#7a4a32"/><rect x="18" y="10" width="5" height="1" fill="#4a2a1a"/><rect x="23" y="10" width="5" height="1" fill="#7a4a32"/><rect x="28" y="10" width="1" height="1" fill="#8e6551"/><rect x="29" y="10" width="1" height="1" fill="#f0e8d0"/><rect x="5" y="11" width="13" height="1" fill="#7a4a32"/><rect x="18" y="11" width="6" height="1" fill="#4a2a1a"/><rect x="24" y="11" width="1" height="1" fill="#7a4a32"/><rect x="29" y="11" width="1" height="1" fill="#f0f0f0"/><rect x="5" y="12" width="20" height="1" fill="#4f3021"/><rect x="5" y="13" width="20" height="1" fill="#4f3021"/><rect x="7" y="14" width="2" height="1" fill="#4f3021"/><rect x="9" y="14" width="2" height="1" fill="#7a4a32"/><rect x="20" y="14" width="2" height="1" fill="#4f3021"/><rect x="22" y="14" width="2" height="1" fill="#7a4a32"/><rect x="7" y="15" width="2" height="1" fill="#4f3021"/><rect x="9" y="15" width="2" height="1" fill="#7a4a32"/><rect x="20" y="15" width="2" height="1" fill="#4f3021"/><rect x="22" y="15" width="2" height="1" fill="#7a4a32"/><rect x="7" y="16" width="2" height="1" fill="#4f3021"/><rect x="9" y="16" width="2" height="1" fill="#7a4a32"/><rect x="20" y="16" width="2" height="1" fill="#4f3021"/><rect x="22" y="16" width="2" height="1" fill="#7a4a32"/></g></svg>
