<svg xmlns="http://www.w3.org/2000/svg" width="28" height="18" viewBox="0 0 28 18" shape-rendering="crispEdges"><g transform="scale(1)"><rect x="6" y="4" width="14" height="1" fill="#140c1c"/><rect x="6" y="5" width="1" height="1" fill="#140c1c"/><rect x="20" y="5" width="1" height="1" fill="#140c1c"/><rect x="23" y="5" width="3" height="1" fill="#140c1c"/><rect x="6" y="6" width="1" height="1" fill="#140c1c"/><rect x="20" y="6" width="1" height="1" fill="#140c1c"/><rect x="23" y="6" width="1" height="1" fill="#140c1c"/><rect x="25" y="6" width="1" height="1" fill="#140c1c"/><rect x="6" y="7" width="1" height="1" fill="#140c1c"/><rect x="20" y="7" width="1" height="1" fill="#140c1c"/><rect x="23" y="7" width="3" height="1" fill="#140c1c"/><rect x="6" y="8" width="1" height="1" fill="#140c1c"/><rect x="19" y="8" width="1" height="1" fill="#140c1c"/><rect x="4" y="9" width="2" height="1" fill="#140c1c"/><rect x="20" y="9" width="2" height="1" fill="#140c1c"/><rect x="4" y="10" width="1" height="1" fill="#140c1c"/><rect x="21" y="10" width="1" height="1" fill="#140c1c"/><rect x="4" y="11" width="1" height="1" fill="#140c1c"/><rect x="21" y="11" width="1" height="1" fill="#140c1c"/><rect x="4" y="12" width="1" height="1" fill="#140c1c"/><rect x="10" y="12" width="6" height="1" fill="#140c1c"/><rect x="21" y="12" width="1" height="1" fill="#140c1c"/><rect x="5" y="13" width="1" height="1" fill="#140c1c"/><rect x="9" y="13" width="1" height="1" fill="#140c1c"/><rect x="16" y="13" width="1" height="1" fill="#140c1c"/><rect x="20" y="13" width="1" height="1" fill="#140c1c"/><rect x="5" y="14" width="1" height="1" fill="#140c1c"/><rect x="9" y="14" width="1" height="1" fill="#140c1c"/><rect x="16" y="14" width="1" height="1" fill="#140c1c"/><rect x="20" y="14" width="1" height="1" fill="#140c1c"/><rect x="5" y="15" width="1" height="1" fill="#140c1c"/><rect x="9" y="15" width="1" height="1" fill="#140c1c"/><rect x="16" y="15" width="1" height="1" fill="#140c1c"/><rect x="20" y="15" width="1" height="1" fill="#140c1c"/><rect x="5" y="16" width="5" height="1" fill="#140c1c"/><rect x="16" y="16" width="5" height="1" fill="#140c1c"/><rect x="6" y="4" width="1" height="1" fill="#5a5a6a"/><rect x="7" y="4" width="12" height="1" fill="#9c9ca6"/><rect x="19" y="4" width="1" height="1" fill="#5a5a6a"/><rect x="6" y="5" width="13" height="1" fill="#5a5a6a"/><rect x="19" y="5" width="2" height="1" fill="#1a1020"/><rect x="23" y="5" width="3" height="1" fill="#ffcc44"/><rect x="6" y="6" width="13" height="1" fill="#5a5a6a"/><rect x="19" y="6" width="2" height="1" fill="#1a1020"/><rect x="23" y="6" width="1" height="1" fill="#ffcc44"/><rect x="24" y="6" width="1" height="1" fill="#ffffff"/><rect x="25" y="6" width="1" height="1" fill="#ffcc44"/><rect x="6" y="7" width="13" height="1" fill="#5a5a6a"/><rect x="19" y="7" width="2" height="1" fill="#1a1020"/><rect x="23" y="7" width="3" height="1" fill="#ffcc44"/><rect x="6" y="8" width="14" height="1" fill="#5a5a6a"/><rect x="4" y="9" width="2" height="1" fill="#c03030"/><rect x="6" y="9" width="16" height="1" fill="#8a6a3a"/><rect x="4" y="10" width="2" height="1" fill="#c03030"/><rect x="6" y="10" width="16" height="1" fill="#6a4a2a"/><rect x="4" y="11" width="2" height="1" fill="#c03030"/><rect x="6" y="11" width="16" height="1" fill="#6a4a2a"/><rect x="4" y="12" width="1" height="1" fill="#6a4a2a"/><rect x="5" y="12" width="5" height="1" fill="#3a2a1a"/><rect x="10" y="12" width="6" height="1" fill="#6a4a2a"/><rect x="16" y="12" width="5" height="1" fill="#3a2a1a"/><rect x="21" y="12" width="1" height="1" fill="#6a4a2a"/><rect x="5" y="13" width="2" height="1" fill="#3a2a1a"/><rect x="7" y="13" width="1" height="1" fill="#b09060"/><rect x="8" y="13" width="2" height="1" fill="#3a2a1a"/><rect x="16" y="13" width="5" height="1" fill="#3a2a1a"/><rect x="5" y="14" width="2" height="1" fill="#3a2a1a"/><rect x="7" y="14" width="1" height="1" fill="#b09060"/><rect x="8" y="14" width="2" height="1" fill="#3a2a1a"/><rect x="16" y="14" width="2" height="1" fill="#3a2a1a"/><rect x="18" y="14" width="1" height="1" fill="#b09060"/><rect x="19" y="14" width="2" height="1" fill="#3a2a1a"/><rect x="5" y="15" width="2" height="1" fill="#3a2a1a"/><rect x="7" y="15" width="1" height="1" fill="#b09060"/><rect x="8" y="15" width="2" height="1" fill="#3a2a1a"/><rect x="16" y="15" width="2" height="1" fill="#3a2a1a"/><rect x="18" y="15" width="1" height="1" fill="#b09060"/><rect x="19" y="15" width="2" height="1" fill="#3a2a1a"/><rect x="5" y="16" width="5" height="1" fill="#3a2a1a"/><rect x="16" y="16" width="2" height="1" fill="#3a2a1a"/><rect x="18" y="16" width="1" height="1" fill="#b09060"/><rect x="19" y="16" width="2" height="1" fill="#3a2a1a"/></g></svg>
