<svg xmlns="http://www.w3.org/2000/svg" width="32" height="26" viewBox="0 0 32 26" shape-rendering="crispEdges"><g transform="scale(1)"><rect x="10" y="6" width="6" height="1" fill="#140c1c"/><rect x="10" y="7" width="1" height="1" fill="#140c1c"/><rect x="15" y="7" width="1" height="1" fill="#140c1c"/><rect x="9" y="8" width="1" height="1" fill="#140c1c"/><rect x="15" y="8" width="1" height="1" fill="#140c1c"/><rect x="9" y="9" width="1" height="1" fill="#140c1c"/><rect x="15" y="9" width="1" height="1" fill="#140c1c"/><rect x="9" y="10" width="1" height="1" fill="#140c1c"/><rect x="15" y="10" width="1" height="1" fill="#140c1c"/><rect x="9" y="11" width="1" height="1" fill="#140c1c"/><rect x="15" y="11" width="1" height="1" fill="#140c1c"/><rect x="9" y="12" width="1" height="1" fill="#140c1c"/><rect x="16" y="12" width="1" height="1" fill="#140c1c"/><rect x="9" y="13" width="1" height="1" fill="#140c1c"/><rect x="17" y="13" width="1" height="1" fill="#140c1c"/><rect x="7" y="14" width="2" height="1" fill="#140c1c"/><rect x="17" y="14" width="1" height="1" fill="#140c1c"/><rect x="7" y="15" width="1" height="1" fill="#140c1c"/><rect x="16" y="15" width="1" height="1" fill="#140c1c"/><rect x="18" y="15" width="1" height="1" fill="#140c1c"/><rect x="7" y="16" width="1" height="1" fill="#140c1c"/><rect x="16" y="16" width="1" height="1" fill="#140c1c"/><rect x="18" y="16" width="1" height="1" fill="#140c1c"/><rect x="7" y="17" width="1" height="1" fill="#140c1c"/><rect x="16" y="17" width="1" height="1" fill="#140c1c"/><rect x="18" y="17" width="1" height="1" fill="#140c1c"/><rect x="7" y="18" width="1" height="1" fill="#140c1c"/><rect x="16" y="18" width="1" height="1" fill="#140c1c"/><rect x="18" y="18" width="1" height="1" fill="#140c1c"/><rect x="7" y="19" width="1" height="1" fill="#140c1c"/><rect x="16" y="19" width="1" height="1" fill="#140c1c"/><rect x="18" y="19" width="1" height="1" fill="#140c1c"/><rect x="7" y="20" width="1" height="1" fill="#140c1c"/><rect x="11" y="20" width="3" height="1" fill="#140c1c"/><rect x="17" y="20" width="1" height="1" fill="#140c1c"/><rect x="7" y="21" width="2" height="1" fill="#140c1c"/><rect x="10" y="21" width="1" height="1" fill="#140c1c"/><rect x="14" y="21" width="1" height="1" fill="#140c1c"/><rect x="17" y="21" width="1" height="1" fill="#140c1c"/><rect x="9" y="22" width="2" height="1" fill="#140c1c"/><rect x="14" y="22" width="1" height="1" fill="#140c1c"/><rect x="16" y="22" width="1" height="1" fill="#140c1c"/><rect x="9" y="23" width="2" height="1" fill="#140c1c"/><rect x="14" y="23" width="2" height="1" fill="#140c1c"/><rect x="9" y="24" width="2" height="1" fill="#140c1c"/><rect x="14" y="24" width="2" height="1" fill="#140c1c"/><rect x="10" y="6" width="6" height="1" fill="#5a3825"/><rect x="10" y="7" width="6" height="1" fill="#5a3825"/><rect x="9" y="8" width="1" height="1" fill="#5a3825"/><rect x="10" y="8" width="6" height="1" fill="#d8c080"/><rect x="9" y="9" width="3" height="1" fill="#5a3825"/><rect x="12" y="9" width="4" height="1" fill="#f0c8a0"/><rect x="9" y="10" width="3" height="1" fill="#5a3825"/><rect x="12" y="10" width="2" height="1" fill="#f0c8a0"/><rect x="14" y="10" width="1" height="1" fill="#1a1020"/><rect x="15" y="10" width="1" height="1" fill="#f0c8a0"/><rect x="9" y="11" width="3" height="1" fill="#5a3825"/><rect x="12" y="11" width="2" height="1" fill="#f0c8a0"/><rect x="14" y="11" width="1" height="1" fill="#1a1020"/><rect x="15" y="11" width="1" height="1" fill="#f0c8a0"/><rect x="9" y="12" width="3" height="1" fill="#5a3825"/><rect x="12" y="12" width="4" height="1" fill="#c0a080"/><rect x="16" y="12" width="1" height="1" fill="#7b6c4e"/><rect x="9" y="13" width="3" height="1" fill="#5a3825"/><rect x="12" y="13" width="4" height="1" fill="#c0a080"/><rect x="16" y="13" width="1" height="1" fill="#d8d8d0"/><rect x="17" y="13" width="1" height="1" fill="#b09a70"/><rect x="7" y="14" width="1" height="1" fill="#30455c"/><rect x="8" y="14" width="1" height="1" fill="#2d435a"/><rect x="9" y="14" width="3" height="1" fill="#5a3825"/><rect x="12" y="14" width="1" height="1" fill="#d8c080"/><rect x="13" y="14" width="2" height="1" fill="#86a2bf"/><rect x="15" y="14" width="1" height="1" fill="#527aa3"/><rect x="16" y="14" width="1" height="1" fill="#d8d8d0"/><rect x="17" y="14" width="1" height="1" fill="#b09a70"/><rect x="7" y="15" width="1" height="1" fill="#30455c"/><rect x="8" y="15" width="1" height="1" fill="#2d435a"/><rect x="9" y="15" width="2" height="1" fill="#395572"/><rect x="11" y="15" width="1" height="1" fill="#527aa3"/><rect x="12" y="15" width="1" height="1" fill="#d8c080"/><rect x="13" y="15" width="2" height="1" fill="#86a2bf"/><rect x="15" y="15" width="1" height="1" fill="#527aa3"/><rect x="16" y="15" width="1" height="1" fill="#d8d8d0"/><rect x="18" y="15" width="1" height="1" fill="#b09a70"/><rect x="7" y="16" width="1" height="1" fill="#30455c"/><rect x="8" y="16" width="1" height="1" fill="#2d435a"/><rect x="9" y="16" width="2" height="1" fill="#395572"/><rect x="11" y="16" width="1" height="1" fill="#527aa3"/><rect x="12" y="16" width="1" height="1" fill="#d8c080"/><rect x="13" y="16" width="3" height="1" fill="#527aa3"/><rect x="16" y="16" width="1" height="1" fill="#d8d8d0"/><rect x="18" y="16" width="1" height="1" fill="#b09a70"/><rect x="7" y="17" width="1" height="1" fill="#30455c"/><rect x="8" y="17" width="1" height="1" fill="#2d435a"/><rect x="9" y="17" width="2" height="1" fill="#395572"/><rect x="11" y="17" width="1" height="1" fill="#527aa3"/><rect x="12" y="17" width="1" height="1" fill="#d8c080"/><rect x="13" y="17" width="3" height="1" fill="#527aa3"/><rect x="16" y="17" width="1" height="1" fill="#d8d8d0"/><rect x="18" y="17" width="1" height="1" fill="#b09a70"/><rect x="7" y="18" width="1" height="1" fill="#30455c"/><rect x="8" y="18" width="1" height="1" fill="#2d435a"/><rect x="9" y="18" width="2" height="1" fill="#395572"/><rect x="11" y="18" width="1" height="1" fill="#527aa3"/><rect x="12" y="18" width="1" height="1" fill="#d8c080"/><rect x="13" y="18" width="3" height="1" fill="#527aa3"/><rect x="16" y="18" width="1" height="1" fill="#d8d8d0"/><rect x="18" y="18" width="1" height="1" fill="#b09a70"/><rect x="7" y="19" width="1" height="1" fill="#30455c"/><rect x="8" y="19" width="1" height="1" fill="#b49678"/><rect x="9" y="19" width="7" height="1" fill="#d8c080"/><rect x="16" y="19" width="1" height="1" fill="#f0c8a0"/><rect x="18" y="19" width="1" height="1" fill="#b09a70"/><rect x="7" y="20" width="1" height="1" fill="#30455c"/><rect x="8" y="20" width="1" height="1" fill="#405c7a"/><rect x="9" y="20" width="2" height="1" fill="#395572"/><rect x="11" y="20" width="5" height="1" fill="#527aa3"/><rect x="16" y="20" width="1" height="1" fill="#d8d8d0"/><rect x="17" y="20" width="1" height="1" fill="#b09a70"/><rect x="7" y="21" width="2" height="1" fill="#30455c"/><rect x="9" y="21" width="2" height="1" fill="#283344"/><rect x="14" y="21" width="2" height="1" fill="#35445a"/><rect x="16" y="21" width="1" height="1" fill="#d8d8d0"/><rect x="17" y="21" width="1" height="1" fill="#b09a70"/><rect x="9" y="22" width="2" height="1" fill="#283344"/><rect x="14" y="22" width="2" height="1" fill="#35445a"/><rect x="16" y="22" width="1" height="1" fill="#7b6c4e"/><rect x="9" y="23" width="2" height="1" fill="#382a1e"/><rect x="14" y="23" width="2" height="1" fill="#4a3828"/><rect x="9" y="24" width="2" height="1" fill="#382a1e"/><rect x="14" y="24" width="2" height="1" fill="#4a3828"/></g></svg>
